<?xml version="1.0" encoding="UTF-8" standalone="no"?>
<!DOCTYPE svg PUBLIC "-//W3C//DTD SVG 1.1//EN" "http://www.w3.org/Graphics/SVG/1.1/DTD/svg11.dtd">
<svg width="100%" height="100%" viewBox="0 0 97 130" version="1.1" xmlns="http://www.w3.org/2000/svg" xmlns:xlink="http://www.w3.org/1999/xlink" xml:space="preserve" xmlns:serif="http://www.serif.com/" style="fill-rule:evenodd;clip-rule:evenodd;stroke-linejoin:round;stroke-miterlimit:2;">
    <g transform="matrix(1,0,0,1,-76.6494,-3182.7)">
        <g transform="matrix(1,0,0,1.59955,0,0)">
            <g id="gs-logo" serif:id="gs logo" transform="matrix(0.677178,0,0,0.423354,-144.616,1398.19)">
                <g transform="matrix(0.969433,0,0,0.969433,325.293,1395.75)">
                    <path d="M94.904,51.498C94.904,45.232 89.816,40.144 83.55,40.144L67.604,40.144C61.338,40.144 56.25,45.232 56.25,51.498L56.25,67.444C56.25,73.711 61.338,78.798 67.604,78.798L83.55,78.798C89.816,78.798 94.904,73.711 94.904,67.444L94.904,51.498Z" style="fill:rgb(25,118,210);"/>
                </g>
                <g transform="matrix(0.969433,0,0,0.969433,325.293,1459.22)">
                    <path d="M94.904,51.498C94.904,45.232 89.816,40.144 83.55,40.144L67.604,40.144C61.338,40.144 56.25,45.232 56.25,51.498L56.25,67.444C56.25,73.711 61.338,78.798 67.604,78.798L83.55,78.798C89.816,78.798 94.904,73.711 94.904,67.444L94.904,51.498Z" style="fill:rgb(25,118,210);"/>
                </g>
                <g transform="matrix(0.969433,0,0,0.969433,325.293,1512.75)">
                    <path d="M94.904,51.498C94.904,45.232 89.816,40.144 83.55,40.144L67.604,40.144C61.338,40.144 56.25,45.232 56.25,51.498L56.25,67.444C56.25,73.711 61.338,78.798 67.604,78.798L83.55,78.798C89.816,78.798 94.904,73.711 94.904,67.444L94.904,51.498Z" style="fill:rgb(25,118,210);"/>
                </g>
                <g transform="matrix(0.969433,0,0,0.969433,272.216,1512.75)">
                    <path d="M94.904,51.498C94.904,45.232 89.816,40.144 83.55,40.144L67.604,40.144C61.338,40.144 56.25,45.232 56.25,51.498L56.25,67.444C56.25,73.711 61.338,78.798 67.604,78.798L83.55,78.798C89.816,78.798 94.904,73.711 94.904,67.444L94.904,51.498Z" style="fill:rgb(25,118,210);"/>
                </g>
                <g transform="matrix(0.969433,0,0,0.969433,272.216,1459.22)">
                    <path d="M94.904,51.498C94.904,45.232 89.816,40.144 83.55,40.144L67.604,40.144C61.338,40.144 56.25,45.232 56.25,51.498L56.25,67.444C56.25,73.711 61.338,78.798 67.604,78.798L83.55,78.798C89.816,78.798 94.904,73.711 94.904,67.444L94.904,51.498Z" style="fill:rgb(25,118,210);"/>
                </g>
                <g transform="matrix(0.969433,0,0,0.969433,272.216,1406.19)">
                    <path d="M94.904,51.498C94.904,45.232 89.816,40.144 83.55,40.144L67.604,40.144C61.338,40.144 56.25,45.232 56.25,51.498L56.25,67.444C56.25,73.711 61.338,78.798 67.604,78.798L83.55,78.798C89.816,78.798 94.904,73.711 94.904,67.444L94.904,51.498Z" style="fill:rgb(25,118,210);"/>
                </g>
                <g transform="matrix(0.969433,0,0,0.969433,377.909,1358.37)">
                    <path d="M94.904,51.498C94.904,45.232 89.816,40.144 83.55,40.144L67.604,40.144C61.338,40.144 56.25,45.232 56.25,51.498L56.25,67.444C56.25,73.711 61.338,78.798 67.604,78.798L83.55,78.798C89.816,78.798 94.904,73.711 94.904,67.444L94.904,51.498Z" style="fill:rgb(25,118,210);"/>
                </g>
                <g transform="matrix(0.969433,0,0,0.969433,377.909,1434.52)">
                    <path d="M94.904,51.498C94.904,45.232 89.816,40.144 83.55,40.144L67.604,40.144C61.338,40.144 56.25,45.232 56.25,51.498L56.25,67.444C56.25,73.711 61.338,78.798 67.604,78.798L83.55,78.798C89.816,78.798 94.904,73.711 94.904,67.444L94.904,51.498Z" style="fill:rgb(25,118,210);"/>
                </g>
                <g transform="matrix(0.969433,0,0,0.969433,377.909,1512.75)">
                    <path d="M94.904,51.498C94.904,45.232 89.816,40.144 83.55,40.144L67.604,40.144C61.338,40.144 56.25,45.232 56.25,51.498L56.25,67.444C56.25,73.711 61.338,78.798 67.604,78.798L83.55,78.798C89.816,78.798 94.904,73.711 94.904,67.444L94.904,51.498Z" style="fill:rgb(25,118,210);"/>
                </g>
            </g>
        </g>
    </g>
</svg>
