<svg width="100%" height="100%" viewBox="0 0 64 64" version="1.1" xmlns="http://www.w3.org/2000/svg" xmlns:xlink="http://www.w3.org/1999/xlink" xml:space="preserve" xmlns:serif="http://www.serif.com/" style="fill-rule:evenodd;clip-rule:evenodd;stroke-linejoin:round;stroke-miterlimit:2;">
    <g transform="matrix(1,0,0,1,-154,-657.439856)">
        <g transform="matrix(1,0,0,1,-5.999968,35.999901)">
            <g transform="matrix(2.666667,0,0,2.666667,159.999968,621.439955)">
                <g transform="matrix(0.025,0,0,0.025,0,24)">
                    <path d="M183.5,-183.5C167.833,-199.167 160,-218 160,-240C160,-262 167.833,-280.833 183.5,-296.5C199.167,-312.167 218,-320 240,-320C262,-320 280.833,-312.167 296.5,-296.5C312.167,-280.833 320,-262 320,-240C320,-218 312.167,-199.167 296.5,-183.5C280.833,-167.833 262,-160 240,-160C218,-160 199.167,-167.833 183.5,-183.5ZM423.5,-183.5C407.833,-199.167 400,-218 400,-240C400,-262 407.833,-280.833 423.5,-296.5C439.167,-312.167 458,-320 480,-320C502,-320 520.833,-312.167 536.5,-296.5C552.167,-280.833 560,-262 560,-240C560,-218 552.167,-199.167 536.5,-183.5C520.833,-167.833 502,-160 480,-160C458,-160 439.167,-167.833 423.5,-183.5ZM663.5,-183.5C647.833,-199.167 640,-218 640,-240C640,-262 647.833,-280.833 663.5,-296.5C679.167,-312.167 698,-320 720,-320C742,-320 760.833,-312.167 776.5,-296.5C792.167,-280.833 800,-262 800,-240C800,-218 792.167,-199.167 776.5,-183.5C760.833,-167.833 742,-160 720,-160C698,-160 679.167,-167.833 663.5,-183.5ZM183.5,-423.5C167.833,-439.167 160,-458 160,-480C160,-502 167.833,-520.833 183.5,-536.5C199.167,-552.167 218,-560 240,-560C262,-560 280.833,-552.167 296.5,-536.5C312.167,-520.833 320,-502 320,-480C320,-458 312.167,-439.167 296.5,-423.5C280.833,-407.833 262,-400 240,-400C218,-400 199.167,-407.833 183.5,-423.5ZM423.5,-423.5C407.833,-439.167 400,-458 400,-480C400,-502 407.833,-520.833 423.5,-536.5C439.167,-552.167 458,-560 480,-560C502,-560 520.833,-552.167 536.5,-536.5C552.167,-520.833 560,-502 560,-480C560,-458 552.167,-439.167 536.5,-423.5C520.833,-407.833 502,-400 480,-400C458,-400 439.167,-407.833 423.5,-423.5ZM663.5,-423.5C647.833,-439.167 640,-458 640,-480C640,-502 647.833,-520.833 663.5,-536.5C679.167,-552.167 698,-560 720,-560C742,-560 760.833,-552.167 776.5,-536.5C792.167,-520.833 800,-502 800,-480C800,-458 792.167,-439.167 776.5,-423.5C760.833,-407.833 742,-400 720,-400C698,-400 679.167,-407.833 663.5,-423.5ZM183.5,-663.5C167.833,-679.167 160,-698 160,-720C160,-742 167.833,-760.833 183.5,-776.5C199.167,-792.167 218,-800 240,-800C262,-800 280.833,-792.167 296.5,-776.5C312.167,-760.833 320,-742 320,-720C320,-698 312.167,-679.167 296.5,-663.5C280.833,-647.833 262,-640 240,-640C218,-640 199.167,-647.833 183.5,-663.5ZM423.5,-663.5C407.833,-679.167 400,-698 400,-720C400,-742 407.833,-760.833 423.5,-776.5C439.167,-792.167 458,-800 480,-800C502,-800 520.833,-792.167 536.5,-776.5C552.167,-760.833 560,-742 560,-720C560,-698 552.167,-679.167 536.5,-663.5C520.833,-647.833 502,-640 480,-640C458,-640 439.167,-647.833 423.5,-663.5ZM663.5,-663.5C647.833,-679.167 640,-698 640,-720C640,-742 647.833,-760.833 663.5,-776.5C679.167,-792.167 698,-800 720,-800C742,-800 760.833,-792.167 776.5,-776.5C792.167,-760.833 800,-742 800,-720C800,-698 792.167,-679.167 776.5,-663.5C760.833,-647.833 742,-640 720,-640C698,-640 679.167,-647.833 663.5,-663.5Z" style="fill:currentColor;fill-rule:nonzero;"/>
                </g>
                <rect x="0" y="0" width="24" height="24" style="fill:none;"/>
            </g>
        </g>
    </g>
</svg>
