<svg width="100%" height="100%" viewBox="0 0 64 64" version="1.1" xmlns="http://www.w3.org/2000/svg" xmlns:xlink="http://www.w3.org/1999/xlink" xml:space="preserve" xmlns:serif="http://www.serif.com/" style="fill-rule:evenodd;clip-rule:evenodd;stroke-linejoin:round;stroke-miterlimit:2;">
    <g transform="matrix(1,0,0,1,-154,-882.465017)">
        <g transform="matrix(1,0,0,1,-5.999968,44.090146)">
            <g transform="matrix(2.666667,0,0,2.666667,159.999968,838.374871)">
                <g transform="matrix(0.025,0,0,0.025,0,24)">
                    <path d="M240,-80C206.667,-80 178.333,-91.667 155,-115C131.667,-138.333 120,-166.667 120,-200L120,-760C120,-793.333 131.667,-821.667 155,-845C178.333,-868.333 206.667,-880 240,-880L680,-880L680,-240L240,-240C228.667,-240 219.167,-236.167 211.5,-228.5C203.833,-220.833 200,-211.333 200,-200C200,-188.667 203.833,-179.167 211.5,-171.5C219.167,-163.833 228.667,-160 240,-160L760,-160L760,-800L840,-800L840,-80L240,-80ZM360,-320L600,-320L600,-800L360,-800L360,-320ZM280,-320L280,-800L240,-800C228.667,-800 219.167,-796.167 211.5,-788.5C203.833,-780.833 200,-771.333 200,-760L200,-313C206.667,-315 213.167,-316.667 219.5,-318C225.833,-319.333 232.667,-320 240,-320L280,-320ZM200,-800L200,-313L200,-800Z" style="fill:rgb(252,252,250);fill-rule:nonzero;"/>
                </g>
                <rect x="0" y="0" width="24" height="24" style="fill:none;"/>
            </g>
        </g>
    </g>
</svg>
