<svg fill="#FFFFFF" viewBox="0 0 24 24" width="32" height="32">
  <path d="m3 10c-0.24 0-0.45 0.09-0.59 0.25-0.14 0.15-0.2 0.37-0.17 0.61l0.5 2.99c0.08 0.65 0.66 1.15 1.26 1.15h3c0.64 0 1.36-0.56 1.5-1.18l1.06-3.19c0.04-0.13 0.01-0.32-0.06-0.44-0.11-0.12-0.28-0.19-0.5-0.19h-6m4 7h-3c-1.62 0-3.04-1.26-3.24-2.86l-0.5-2.99c-0.11-0.85 0.13-1.65 0.65-2.23s1.28-0.92 2.09-0.92h6c0.83 0 1.58 0.35 2.06 0.96 0.11 0.15 0.21 0.31 0.29 0.49 0.43-0.09 0.87-0.09 1.29 0 0.08-0.18 0.18-0.34 0.3-0.49 0.47-0.61 1.22-0.96 2.06-0.96h6c0.81 0 1.57 0.34 2.09 0.92 0.51 0.58 0.75 1.38 0.65 2.19l-0.51 3.07c-0.19 1.56-1.62 2.82-3.23 2.82h-3c-1.56 0-3.08-1.19-3.46-2.7l-0.9-2.71c-0.38-0.28-0.91-0.28-1.29 0l-0.92 2.78c-0.36 1.45-1.87 2.63-3.43 2.63m8-7c-0.22 0-0.39 0.07-0.5 0.19-0.08 0.12-0.1 0.31-0.05 0.51l1.01 3.05c0.18 0.69 0.9 1.25 1.54 1.25h3c0.59 0 1.18-0.5 1.25-1.11l0.51-3.07c0.03-0.2-0.03-0.42-0.17-0.57-0.14-0.16-0.35-0.25-0.59-0.25h-6z"/>
</svg>
