<svg width="100%" height="100%" viewBox="0 0 64 64" version="1.1" xmlns="http://www.w3.org/2000/svg" xmlns:xlink="http://www.w3.org/1999/xlink" xml:space="preserve" xmlns:serif="http://www.serif.com/" style="fill-rule:evenodd;clip-rule:evenodd;stroke-linejoin:round;stroke-miterlimit:2;">
    <g transform="matrix(1,0,0,1,-154,-1107.490179)">
        <g transform="matrix(1,0,0,1,-5.999968,-43.687514)">
            <g transform="matrix(2.666667,0,0,2.666667,159.999968,1151.177693)">
                <g transform="matrix(0.025,0,0,0.025,0,24)">
                    <path d="M80,-120L80,-720L320,-720L320,-880L640,-880L640,-720L880,-720L880,-120L80,-120ZM160,-200L800,-200L800,-640L160,-640L160,-200ZM400,-720L560,-720L560,-800L400,-800L400,-720ZM160,-200L160,-640L160,-200Z" style="fill:currentColor;fill-rule:nonzero;"/>
                </g>
                <rect x="0" y="0" width="24" height="24" style="fill:none;"/>
            </g>
        </g>
    </g>
</svg>
