<svg width="100%" height="100%" viewBox="0 0 64 64" version="1.1" xmlns="http://www.w3.org/2000/svg" xmlns:xlink="http://www.w3.org/1999/xlink" xml:space="preserve" xmlns:serif="http://www.serif.com/" style="fill-rule:evenodd;clip-rule:evenodd;stroke-linejoin:round;stroke-miterlimit:2;">
    <g transform="matrix(1,0,0,1,-262.666652,-1332.498869)">
        <g transform="matrix(2.666667,0,0,2.666667,262.666652,1332.498869)">
            <g transform="matrix(0.035248,0,0,0.035248,2.976614,2.488888)">
                <path d="M509.934,119.48C502.047,61.492 450.957,15.797 390.393,6.943C380.174,5.444 341.461,0 251.779,0L251.11,0C161.404,0 142.16,5.444 131.941,6.943C73.064,15.552 19.296,56.613 6.25,115.283C-0.024,144.179 -0.693,176.213 0.471,205.598C2.134,247.739 2.455,289.804 6.325,331.773C9,359.657 13.666,387.314 20.287,414.533C32.687,464.817 82.885,506.663 132.066,523.736C184.757,541.539 241.346,544.493 295.604,532.271C301.564,530.899 307.47,529.304 313.311,527.489C326.48,523.341 341.932,518.707 353.292,510.562C353.446,510.449 353.574,510.3 353.666,510.13C353.755,509.96 353.804,509.772 353.812,509.581L353.812,468.915C353.806,468.551 353.635,468.209 353.347,467.986C353.056,467.763 352.682,467.68 352.324,467.759C317.549,475.974 281.931,480.09 246.199,480.023C184.694,480.023 168.151,451.153 163.415,439.135C159.609,428.755 157.19,417.918 156.221,406.905C156.211,406.719 156.247,406.536 156.323,406.366C156.475,406.019 156.786,405.768 157.157,405.692C157.338,405.652 157.528,405.658 157.709,405.702C191.905,413.862 226.942,417.978 262.098,417.966C270.555,417.966 278.986,417.966 287.445,417.747C322.811,416.766 360.085,414.975 394.881,408.254C395.749,408.081 396.617,407.935 397.363,407.716C452.247,397.289 504.476,364.567 509.785,281.711C509.984,278.447 510.481,247.543 510.481,244.156C510.504,232.653 514.225,162.552 509.934,119.48ZM425.461,326.232L367.75,326.232L367.75,186.417C367.75,156.982 355.35,141.972 330.125,141.972C302.398,141.972 288.51,159.73 288.51,194.806L288.51,271.334L231.147,271.334L231.147,194.806C231.147,159.73 217.232,141.972 189.505,141.972C164.43,141.972 151.906,156.982 151.88,186.417L151.88,326.232L94.219,326.232L94.219,182.173C94.219,152.741 101.816,129.355 117.011,112.022C132.686,94.729 153.245,85.851 178.765,85.851C208.304,85.851 230.624,97.085 245.506,119.527L259.865,143.371L274.25,119.527C289.13,97.085 311.451,85.851 340.941,85.851C366.435,85.851 386.994,94.729 402.718,112.022C417.914,129.339 425.511,152.722 425.511,182.173L425.461,326.232Z" style="fill:white;fill-rule:nonzero;"/>
            </g>
            <rect x="0" y="0" width="24" height="24" style="fill:none;"/>
        </g>
    </g>
</svg>
