<svg fill="#FFFFFF" viewBox="0 0 24 24" width="32" height="32">
  <path d="M21.591,14.137C21.297,15.652 18.953,17.311 16.262,17.632C14.858,17.799 13.477,17.953 12.003,17.885C9.594,17.775 7.692,17.311 7.692,17.311C7.692,17.545 7.707,17.768 7.736,17.978C8.049,20.356 10.094,20.498 12.031,20.564C13.986,20.631 15.727,20.083 15.727,20.083L15.807,21.849C15.807,21.849 14.44,22.584 12.003,22.719C10.66,22.793 8.993,22.685 7.05,22.171C2.837,21.055 2.112,16.564 2.001,12.008C1.967,10.655 1.989,9.379 1.989,8.313C1.989,3.652 5.041,2.287 5.041,2.287C6.581,1.58 9.222,1.282 11.969,1.26L12.036,1.26C14.781,1.282 17.425,1.58 18.964,2.287C18.964,2.287 22.017,3.652 22.017,8.313C22.017,8.313 22.055,11.75 21.591,14.137ZM18.416,8.673C18.416,7.521 18.122,6.604 17.533,5.927C16.924,5.248 16.128,4.901 15.139,4.901C13.996,4.901 13.129,5.34 12.557,6.22L12,7.154L11.443,6.22C10.87,5.34 10.004,4.901 8.86,4.901C7.871,4.901 7.076,5.248 6.467,5.927C5.877,6.604 5.584,7.521 5.584,8.673L5.584,14.315L7.819,14.315L7.819,8.84C7.819,7.685 8.304,7.099 9.276,7.099C10.35,7.099 10.889,7.794 10.889,9.169L10.889,12.166L13.111,12.166L13.111,9.169C13.111,7.794 13.649,7.099 14.723,7.099C15.695,7.099 16.18,7.685 16.18,8.84L16.18,14.315L18.416,14.315L18.416,8.673Z" style="fill-rule: nonzero;"/>
</svg>
