<svg width="100%" height="100%" viewBox="0 0 64 64" version="1.1" xmlns="http://www.w3.org/2000/svg" xmlns:xlink="http://www.w3.org/1999/xlink" xml:space="preserve" xmlns:serif="http://www.serif.com/" style="fill-rule:evenodd;clip-rule:evenodd;stroke-linejoin:round;stroke-miterlimit:2;">
    <g transform="matrix(1,0,0,1,-154,-769.952436)">
        <g transform="matrix(1,0,0,1,-5.999968,46.982179)">
            <g transform="matrix(2.666667,0,0,2.666667,159.999968,722.970258)">
                <g transform="matrix(0.025,0,0,0.025,0,24)">
                    <path d="M395,-435C371.667,-458.333 360,-486.667 360,-520L360,-760C360,-793.333 371.667,-821.667 395,-845C418.333,-868.333 446.667,-880 480,-880C513.333,-880 541.667,-868.333 565,-845C588.333,-821.667 600,-793.333 600,-760L600,-520C600,-486.667 588.333,-458.333 565,-435C541.667,-411.667 513.333,-400 480,-400C446.667,-400 418.333,-411.667 395,-435ZM440,-120L440,-243C370.667,-252.333 313.333,-283.333 268,-336C222.667,-388.667 200,-450 200,-520L280,-520C280,-464.667 299.5,-417.5 338.5,-378.5C377.5,-339.5 424.667,-320 480,-320C535.333,-320 582.5,-339.5 621.5,-378.5C660.5,-417.5 680,-464.667 680,-520L760,-520C760,-450 737.333,-388.667 692,-336C646.667,-283.333 589.333,-252.333 520,-243L520,-120L440,-120ZM508.5,-491.5C516.167,-499.167 520,-508.667 520,-520L520,-760C520,-771.333 516.167,-780.833 508.5,-788.5C500.833,-796.167 491.333,-800 480,-800C468.667,-800 459.167,-796.167 451.5,-788.5C443.833,-780.833 440,-771.333 440,-760L440,-520C440,-508.667 443.833,-499.167 451.5,-491.5C459.167,-483.833 468.667,-480 480,-480C491.333,-480 500.833,-483.833 508.5,-491.5Z" style="fill:rgb(252,252,250);fill-rule:nonzero;"/>
                </g>
                <rect x="0" y="0" width="24" height="24" style="fill:none;"/>
            </g>
        </g>
    </g>
</svg>
