<svg width="100%" height="100%" viewBox="0 0 64 64" version="1.1" xmlns="http://www.w3.org/2000/svg" xmlns:xlink="http://www.w3.org/1999/xlink" xml:space="preserve" xmlns:serif="http://www.serif.com/" style="fill-rule:evenodd;clip-rule:evenodd;stroke-linejoin:round;stroke-miterlimit:2;">
    <g transform="matrix(1,0,0,1,-479.999955,-1325.861836)">
        <g transform="matrix(2.666667,0,0,2.666667,479.999955,1325.861836)">
            <g transform="matrix(0.025,0,0,0.025,0,24)">
                <path d="M143.5,-143.5C127.833,-159.167 120,-178 120,-200C120,-222 127.833,-240.833 143.5,-256.5C159.167,-272.167 178,-280 200,-280C222,-280 240.833,-272.167 256.5,-256.5C272.167,-240.833 280,-222 280,-200C280,-178 272.167,-159.167 256.5,-143.5C240.833,-127.833 222,-120 200,-120C178,-120 159.167,-127.833 143.5,-143.5ZM680,-120C680,-198 665.333,-270.833 636,-338.5C606.667,-406.167 566.667,-465.333 516,-516C465.333,-566.667 406.167,-606.667 338.5,-636C270.833,-665.333 198,-680 120,-680L120,-800C214.667,-800 303,-782.333 385,-747C467,-711.667 539,-663 601,-601C663,-539 711.667,-467 747,-385C782.333,-303 800,-214.667 800,-120L680,-120ZM440,-120C440,-164.667 431.667,-206.167 415,-244.5C398.333,-282.833 375.333,-316.667 346,-346C316.667,-375.333 282.833,-398.333 244.5,-415C206.167,-431.667 164.667,-440 120,-440L120,-560C181.333,-560 238.5,-548.5 291.5,-525.5C344.5,-502.5 391,-471 431,-431C471,-391 502.5,-344.5 525.5,-291.5C548.5,-238.5 560,-181.333 560,-120L440,-120Z" style="fill:white;fill-rule:nonzero;"/>
            </g>
            <rect x="0" y="0" width="24" height="24" style="fill:none;"/>
        </g>
    </g>
</svg>
